PathFileType	4	(X/Y/Z)	C:\Users\Basilio\Documents\Thesis Gigler\squatting_fais\c3dfiles\038\SJ_pre4\markers_experimental.trc
DataRate	CameraRate	NumFrames	NumMarkers	Units	OrigDataRate	OrigDataStartFrame	OrigNumFrames
200.000000	200.000000	4	61	mm	200.000000	0	2007
Frame#	Time	FHD			LBHD			RBHD			C7			T10			CLAV			LSHO			LUUPA			LMUPA			LDUPA			LLEP			LMEP			LRAD			LUL			LRFIN			RSHO			RUPA1			RMUPA			RDUPA			RLEP			RMEP			RRAD			RUL			RUFIN			LASI			RASI			USACR			LSACR			RSACR			LTHI1			LTHI2			LTHI3			LTHI4			LLFC			LMFC			LTIB1			LTIB2			LTIB3			LTIB4			LLMAL			LMMAL			LHEE			LMT1			LMT2			LMT5			RTHI			RTHI2			RTHI3			RTHI4			RLFC			RMFC			RTIB1			RTIB2			RTIB3			RTIB4			RLMAL			RMMAL			RHEE			RMT1			RMT2			RMT5			
		X1	Y1	Z1	X2	Y2	Z2	X3	Y3	Z3	X4	Y4	Z4	X5	Y5	Z5	X6	Y6	Z6	X7	Y7	Z7	X8	Y8	Z8	X9	Y9	Z9	X10	Y10	Z10	X11	Y11	Z11	X12	Y12	Z12	X13	Y13	Z13	X14	Y14	Z14	X15	Y15	Z15	X16	Y16	Z16	X17	Y17	Z17	X18	Y18	Z18	X19	Y19	Z19	X20	Y20	Z20	X21	Y21	Z21	X22	Y22	Z22	X23	Y23	Z23	X24	Y24	Z24	X25	Y25	Z25	X26	Y26	Z26	X27	Y27	Z27	X28	Y28	Z28	X29	Y29	Z29	X30	Y30	Z30	X31	Y31	Z31	X32	Y32	Z32	X33	Y33	Z33	X34	Y34	Z34	X35	Y35	Z35	X36	Y36	Z36	X37	Y37	Z37	X38	Y38	Z38	X39	Y39	Z39	X40	Y40	Z40	X41	Y41	Z41	X42	Y42	Z42	X43	Y43	Z43	X44	Y44	Z44	X45	Y45	Z45	X46	Y46	Z46	X47	Y47	Z47	X48	Y48	Z48	X49	Y49	Z49	X50	Y50	Z50	X51	Y51	Z51	X52	Y52	Z52	X53	Y53	Z53	X54	Y54	Z54	X55	Y55	Z55	X56	Y56	Z56	X57	Y57	Z57	X58	Y58	Z58	X59	Y59	Z59	X60	Y60	Z60	X61	Y61	Z61	

1	0	-177.4110870361328	1723.127197265625	-866.673767089844	-317.9043273925782	1690.078369140625	-963.6204223632815	-345.9134216308594	1678.841430664063	-820.5222167968752	-407.9451293945314	1524.922973632813	-887.0638427734377	-427.4684448242189	1233.46337890625	-877.4957275390627	-267.3220520019532	1480.114501953125	-897.6845703125002	-331.3200378417969	1521.415771484375	-1063.36669921875	-385.188934326172	1343.993041992188	-1225.418823242188	-339.1987609863282	1322.361694335938	-1221.010986328125	-367.9794921875001	1285.250366210938	-1260.099853515625	-348.5746765136719	1225.849609375	-1277.698364257813	-415.8556213378907	1189.869262695313	-1243.419189453125	-261.1427307128907	1035.088989257813	-1073.126586914063	-220.8531646728516	1005.1240234375	-1127.026733398438	-238.8303833007813	993.9556884765627	-1015.14990234375	-306.0178222656251	1510.56005859375	-727.8395996093751	-304.2477111816407	1348.382446289063	-566.8955078125001	-280.1345825195313	1308.74755859375	-582.5145263671876	-300.3065185546876	1290.42919921875	-529.3828125000001	-287.3484191894532	1217.937133789063	-505.0465393066407	-367.5162048339844	1194.191284179688	-511.4507751464845	-274.7768249511719	989.091491699219	-662.4182739257814	-217.2736968994141	970.4119262695315	-623.6928100585939	-236.7292480468751	972.1882324218752	-723.5579833984376	-255.9982452392579	1042.773803710938	-1005.97607421875	-248.1017761230469	1049.230346679688	-752.7890014648439	-421.0255737304689	1095.664306640625	-874.4377441406252	-434.7925720214845	1066.466186523438	-900.7442626953127	-429.0374755859376	1065.963500976563	-845.1555786132815	-350.1485900878907	733.5125122070314	-1075.781372070313	-332.7916870117188	650.4103393554689	-1076.199340820313	-284.8563842773438	646.2607421875001	-1062.634765625	-367.3661193847657	604.8573608398439	-1057.856567382813	-373.4039001464844	542.1867065429689	-1057.063110351563	-344.2845458984376	515.8385009765626	-942.0683593750002	-348.0868530273438	344.3487548828126	-1020.447570800781	-403.1061096191407	315.1127319335938	-1085.520385742188	-366.1927795410157	304.0585937500001	-1061.786987304688	-378.2637329101563	222.3490447998047	-1044.697509765625	-471.6461486816407	90.17491912841798	-1073.625	-423.8110351562501	98.1708679199219	-1007.891845703125	-510.929412841797	45.04204940795899	-1023.2685546875	-301.7414550781251	46.18247222900391	-1050.95068359375	-303.6067504882813	49.02196121215822	-1101.852294921875	-350.2310485839844	30.19086456298829	-1142.8583984375	-344.1147766113282	787.6399536132815	-697.7142944335939	-319.2201232910157	724.7997436523439	-692.4349975585939	-286.8122253417969	720.3582153320314	-694.2531127929689	-362.6812438964844	652.8088378906251	-709.8366088867189	-375.9471435546876	514.6720581054689	-715.3413696289064	-365.2920837402344	509.6839599609376	-835.967956542969	-345.6932373046876	336.0390625000001	-731.9035034179689	-429.5028076171876	262.5579833984376	-697.7887573242189	-382.2801513671876	262.1832580566407	-705.4945068359376	-372.6195068359376	210.3292541503907	-731.2706909179689	-449.4750061035157	94.11483001708986	-707.6904296875001	-408.7447814941407	94.97094726562501	-781.0705566406252	-496.1576232910157	41.87528991699219	-776.485534667969	-284.6620178222657	47.51889038085938	-719.9512329101564	-297.6489562988282	52.51519012451173	-674.8552856445314	-348.7276306152344	34.05369949340821	-638.8350219726564	
2	0.005	-177.2686767578125	1723.016845703125	-866.2986450195315	-318.0264282226563	1689.555053710938	-963.2833251953127	-346.3669738769532	1678.283447265625	-820.0383911132815	-407.7221984863282	1524.86181640625	-886.607604980469	-427.0689392089845	1233.424560546875	-877.1091308593752	-267.1036682128907	1480.048828125	-897.2613525390627	-331.1407470703126	1521.275268554688	-1062.90625	-384.8288879394532	1343.8466796875	-1225.02392578125	-338.9126281738282	1322.210083007813	-1220.605834960938	-367.6670837402344	1285.193359375	-1259.719848632813	-348.1465454101563	1225.765747070313	-1277.333740234375	-415.5468139648439	1189.734619140625	-1243.074584960938	-260.6455993652344	1035.006713867188	-1072.68359375	-220.3730163574219	1005.120910644531	-1126.62109375	-238.5169067382813	993.8484497070315	-1014.81494140625	-305.8818054199219	1510.328979492188	-727.3677978515626	-303.8336791992188	1348.278686523438	-566.4562377929689	-279.6320800781251	1308.632080078125	-582.1346435546876	-299.6354064941407	1290.076293945313	-529.0065307617189	-286.6591491699219	1217.888305664063	-504.6782226562501	-366.8770446777344	1194.01416015625	-510.9894409179689	-274.1522827148438	989.0256347656252	-662.0247192382814	-216.5404968261719	970.3392333984377	-623.4428710937501	-236.6654968261719	972.0096435546877	-724.4365234375001	-255.4850311279297	1042.762329101563	-1005.704895019531	-247.5774078369141	1049.202270507813	-752.4147338867189	-420.6209411621095	1095.623413085938	-874.0415039062502	-435.0290832519532	1067.326171875	-900.249206542969	-431.0821533203126	1067.792358398438	-845.349304199219	-349.9512329101563	733.4826660156251	-1075.478759765625	-332.7447509765626	650.3972167968751	-1075.80224609375	-284.7417907714844	646.1840820312501	-1062.363037109375	-367.3421630859376	604.8714599609376	-1057.548583984375	-373.4624633789063	542.2077026367189	-1056.273071289063	-344.0976257324219	515.8622436523439	-941.8487548828127	-348.0343627929688	344.3437805175782	-1020.2568359375	-403.1211547851564	315.1756591796876	-1085.361694335938	-366.1627807617188	304.1127624511719	-1061.657958984375	-378.3098754882813	222.388168334961	-1044.5986328125	-471.5563354492189	89.79573822021486	-1073.740112304688	-423.2764282226564	98.5959167480469	-1007.58203125	-510.9185791015626	45.06479263305665	-1023.2763671875	-301.7572326660157	46.15432739257813	-1050.993286132813	-303.5914306640626	49.03002166748048	-1101.832153320313	-350.8152465820313	30.75935745239259	-1142.849243164063	-343.7622680664063	787.6533813476565	-697.4106445312501	-318.9580993652344	724.7891845703126	-692.1946411132814	-286.5214538574219	720.3215942382814	-694.0138549804689	-362.4081115722657	652.8031005859376	-709.5594482421876	-375.8052062988282	514.6461181640626	-715.0815429687501	-365.1622924804688	509.6913452148439	-835.7114257812502	-345.6661987304688	336.0159912109376	-731.7359008789064	-429.446502685547	262.5749511718751	-697.6824951171876	-382.2439270019532	262.2074584960938	-705.3404541015626	-372.5976867675782	210.3346557617188	-731.2463378906251	-449.4694213867189	94.11338043212892	-707.6569824218751	-408.7379150390626	94.96610260009767	-781.0312500000002	-496.1576232910157	41.87528228759766	-776.485534667969	-284.4047241210938	48.5436248779297	-719.7116088867189	-297.6286926269532	52.56484222412111	-674.8878173828126	-348.7322387695313	34.05724716186524	-638.8204345703126	
3	0.01	-177.5391845703125	1723.904907226563	-865.905944824219	-317.9678649902344	1689.457641601563	-962.9639892578127	-346.5881958007813	1678.171508789063	-819.8001098632815	-407.4177246093751	1524.75439453125	-886.1314086914065	-426.7171020507814	1233.317626953125	-876.7700195312502	-266.8242797851563	1480.047973632813	-896.8880004882815	-330.9564514160157	1521.104248046875	-1062.50341796875	-384.4399719238282	1343.693603515625	-1224.572143554688	-338.6454772949219	1322.0419921875	-1220.162841796875	-367.2959899902344	1285.065307617188	-1259.35791015625	-347.6902770996094	1225.6865234375	-1276.906494140625	-415.1062011718751	1189.5869140625	-1242.80126953125	-260.2535705566407	1034.917114257813	-1072.282104492188	-219.4280548095704	1004.62890625	-1126.12890625	-238.2299041748047	993.757995605469	-1014.416564941406	-305.6376342773438	1510.160888671875	-726.9725341796876	-303.3341674804688	1348.215942382813	-566.1027832031251	-279.1240234375001	1308.517822265625	-581.7667846679689	-299.0939636230469	1289.9189453125	-528.4967651367189	-285.9524230957032	1217.75927734375	-504.2526245117189	-366.1551818847657	1193.834350585938	-510.5214843750001	-273.6006469726563	988.9431762695315	-661.6759643554689	-215.7946319580079	970.304138183594	-623.2830200195314	-236.0935668945313	971.9167480468752	-724.0132446289064	-255.1279602050782	1042.697387695313	-1005.384155273438	-247.1723022460938	1049.15673828125	-751.9281616210939	-420.1300354003907	1095.601928710938	-873.7209472656252	-434.611297607422	1067.284790039063	-899.9036865234377	-430.6170959472657	1067.8076171875	-844.9475097656252	-349.8209228515626	733.5113525390626	-1075.187866210938	-332.6155090332032	650.4122314453126	-1075.503173828125	-284.6304931640626	646.1834716796876	-1062.126708984375	-367.2842102050782	604.9140014648439	-1057.24658203125	-373.4162902832032	542.2230834960939	-1056.006713867188	-343.8679199218751	515.8024291992189	-941.6369628906252	-348.0958862304688	344.3589172363282	-1020.088928222656	-403.0383911132814	315.2235717773438	-1085.245971679688	-366.1505432128907	304.1531066894532	-1061.508422851563	-378.6305236816407	221.5681610107422	-1044.838745117188	-471.5566406250001	90.24926757812501	-1073.516357421875	-423.256317138672	98.60662078857425	-1007.514404296875	-510.8839111328126	45.03533554077149	-1023.23095703125	-301.7611389160157	46.15304946899415	-1050.911499023438	-303.5929565429688	49.05757141113283	-1101.845581054688	-350.7974548339844	30.76665115356446	-1142.853881835938	-343.4061279296876	787.6042480468752	-697.0936279296876	-318.7969055175782	724.7611694335939	-691.9330444335939	-286.1979980468751	720.2483520507814	-693.7551879882814	-362.1922302246094	652.8297729492189	-709.2579956054689	-375.6969604492188	514.6701660156251	-714.8370361328126	-364.9906921386719	509.708953857422	-835.471130371094	-345.5874328613282	336.0158691406251	-731.6157836914064	-429.346405029297	262.5791320800782	-697.5708618164064	-382.2032165527344	262.1805725097657	-705.2422485351564	-372.5495910644532	210.3481903076172	-731.1689453125001	-449.4598693847657	94.12973785400392	-707.6273803710939	-408.7075195312501	94.98671722412111	-781.0073852539065	-496.158416748047	41.88413238525391	-776.4261474609377	-284.3822326660157	48.52402496337892	-719.6535644531251	-297.6278991699219	52.56536865234376	-674.8686523437501	-348.7061767578126	34.00279617309571	-638.8108520507814	
4	0.015	-177.7920074462891	1724.242919921875	-865.3046875000002	-317.8739929199219	1689.403930664063	-962.6820068359377	-346.8183898925782	1678.456176757813	-819.8621826171877	-407.181610107422	1524.710083007813	-885.7053833007815	-426.3504943847657	1233.242919921875	-876.4390258789065	-266.5523071289063	1479.997314453125	-896.542907714844	-330.7806091308594	1520.987915039063	-1062.092163085938	-384.2392883300782	1343.548217773438	-1224.001586914063	-338.3870239257813	1321.696899414063	-1219.925415039063	-366.9048767089844	1284.971069335938	-1258.9775390625	-347.2754821777344	1225.598388671875	-1276.569091796875	-414.6615295410157	1189.454223632813	-1242.47216796875	-259.9639587402344	1034.859130859375	-1071.96630859375	-218.9722747802735	1004.559509277344	-1125.752319335938	-237.9031524658204	993.6596679687502	-1014.046447753906	-305.4613342285157	1510.004516601563	-726.5070800781251	-302.6948242187501	1348.109130859375	-565.6963500976564	-278.6026306152344	1308.378540039063	-581.2819213867189	-298.5847778320313	1289.794799804688	-528.0042724609376	-285.3292846679688	1217.67041015625	-503.8142395019532	-365.4223327636719	1193.676025390625	-509.8831787109376	-273.0776062011719	988.837829589844	-661.3193969726564	-215.2234191894532	970.2146606445315	-622.9557495117189	-234.5873107910157	971.7100219726565	-722.9208984375001	-254.7915191650391	1042.619750976563	-1005.104797363281	-246.8171691894532	1049.110229492188	-751.6228637695314	-419.6690063476564	1095.603271484375	-873.3615722656252	-434.260467529297	1067.281005859375	-899.508239746094	-430.2285156250001	1067.789306640625	-844.5480957031252	-349.7146911621094	733.4748535156251	-1074.867431640625	-332.5640869140626	650.3768310546876	-1075.216430664063	-284.6383361816407	646.1090087890626	-1061.757568359375	-367.1964111328126	604.8964233398439	-1056.906005859375	-373.4258117675782	542.2680664062501	-1055.674438476563	-343.6881103515626	515.7987060546876	-941.3933715820315	-348.0257873535157	344.3743896484376	-1019.907348632813	-403.0395812988282	315.2942504882813	-1085.061889648438	-366.0760192871094	304.2155456542969	-1061.3447265625	-378.2159118652344	222.4981994628907	-1044.376586914063	-471.5490112304689	90.29192352294923	-1073.500610351563	-423.2317199707032	98.61544036865237	-1007.466247558594	-510.885711669922	45.10412979125977	-1023.196533203125	-302.3404541015626	46.83149337768555	-1050.966064453125	-303.1678161621094	50.04647827148439	-1102.372314453125	-350.8019409179688	30.7506332397461	-1142.790893554688	-343.1608276367188	787.597595214844	-696.8272094726564	-318.6328430175782	725.2588500976564	-691.3681030273439	-285.9176330566407	720.2487182617189	-693.4547729492189	-362.0060119628907	652.8229370117189	-708.9901733398439	-375.5751953125001	514.6414794921876	-714.6489257812501	-364.9193115234376	509.7720947265626	-835.304626464844	-345.5192565917969	336.0143127441407	-731.5150146484376	-429.2592163085939	262.5639343261719	-697.4348754882814	-382.1118164062501	262.1867980957032	-705.1220092773439	-372.5038452148438	210.3357086181641	-731.0855102539064	-449.4671020507814	94.13987731933595	-707.5780029296876	-408.7059020996095	94.98994445800783	-780.9448852539065	-496.1540527343751	41.87989807128907	-776.4600219726565	-284.4128417968751	48.50924682617189	-719.6137695312501	-297.6191711425782	52.54996871948244	-674.8860473632814	-348.7301025390626	34.00899887084962	-638.7844238281251	
